Coordinates
version=1
nRows=43
nColumns=12
inDegrees=yes

Units are S.I. units (second, meters, Newtons, ...)
Angles are in degrees

endheader
time	SC_y	SC_z	SC_x	AC_y	AC_z	AC_x	GH_y	GH_z	GH_yy	EL_x	PS_y
       0.0              -49.43          34.12           32.4          54.23         -19.92          14.35         -177.4          89.64          176.3          104.6          14.18
   0.01331              -49.43          34.12          32.41          54.23         -19.92          14.35         -177.4          89.64          176.3          104.5          14.19
   0.02661              -49.44          34.12          32.42          54.23         -19.91          14.34         -177.3          89.64          176.3          104.5           14.2
   0.03992              -49.44          34.12          32.43          54.23         -19.91          14.34         -177.3          89.64          176.2          104.5          14.22
   0.05322              -49.44          34.12          32.43          54.23         -19.91          14.33         -177.2          89.64          176.2          104.5          14.23
   0.06653              -49.44          34.12          32.44          54.24         -19.91          14.33         -177.2          89.64          176.1          104.5          14.24
   0.07983              -49.44          34.12          32.45          54.24         -19.91          14.32         -177.1          89.64          176.1          104.5          14.26
   0.09314              -49.44          34.12          32.46          54.24         -19.91          14.32         -177.0          89.64          176.0          104.5          14.27
    0.1064              -49.44          34.11          32.48          54.25         -19.91          14.31         -176.9          89.64          175.9          104.5          14.29
    0.1197              -49.44          34.11          32.49          54.25         -19.91          14.31         -176.9          89.64          175.9          104.5          14.31
    0.1331              -49.44          34.11           32.5          54.25          -19.9           14.3         -176.8          89.64          175.8          104.5          14.32
    0.1464              -49.44          34.11          32.51          54.26          -19.9          14.29         -176.7          89.64          175.7          104.5          14.34
    0.1597              -49.44          34.11          32.53          54.26          -19.9          14.29         -176.6          89.64          175.6          104.4          14.37
     0.173              -49.45          34.11          32.55          54.27          -19.9          14.28         -176.5          89.64          175.6          104.4          14.39
    0.1863              -49.45          34.11          32.56          54.27          -19.9          14.27         -176.3          89.64          175.5          104.4          14.42
    0.1996              -49.45          34.11          32.58          54.28         -19.89          14.26         -176.2          89.64          175.4          104.4          14.44
    0.2129              -49.45          34.11           32.6          54.28         -19.89          14.25         -176.1          89.64          175.2          104.4          14.47
    0.2262              -49.45          34.11          32.63          54.29         -19.89          14.24         -175.9          89.64          175.1          104.4          14.51
    0.2395              -49.45           34.1          32.65           54.3         -19.88          14.22         -175.7          89.63          175.0          104.3          14.54
    0.2528              -49.46           34.1          32.68          54.31         -19.88          14.21         -175.5          89.63          174.8          104.3          14.58
    0.2661              -49.46           34.1          32.71          54.32         -19.88           14.2         -175.3          89.63          174.7          104.3          14.63
    0.2794              -49.46           34.1          32.74          54.32         -19.87          14.18         -175.1          89.63          174.5          104.3          14.67
    0.2927              -49.46           34.1          32.77          54.34         -19.87          14.16         -174.9          89.63          174.3          104.2          14.73
     0.306              -49.47          34.09          32.81          54.35         -19.86          14.14         -174.6          89.63          174.1          104.2          14.78
    0.3193              -49.47          34.09          32.86          54.36         -19.86          14.12         -174.3          89.63          173.8          104.1          14.85
    0.3326              -49.47          34.09          32.91          54.38         -19.85          14.09         -173.9          89.63          173.5          104.1          14.92
    0.3459              -49.48          34.09          32.96          54.39         -19.84          14.06         -173.6          89.63          173.2          104.1           15.0
    0.3592              -49.48          34.08          33.03          54.41         -19.83          14.03         -173.1          89.63          172.9          104.0          15.09
    0.3725              -49.49          34.08           33.1          54.43         -19.82           14.0         -172.6          89.62          172.5          103.9          15.19
    0.3858              -49.49          34.07          33.18          54.45         -19.81          13.96         -172.1          89.62          172.1          103.9          15.31
    0.3992               -49.5          34.07          33.27          54.48          -19.8          13.91         -171.5          89.62          171.6          103.8          15.44
    0.4125              -49.51          34.06          33.37          54.51         -19.79          13.86         -170.7          89.62          171.0          103.7           15.6
    0.4258              -49.52          34.05          33.49          54.55         -19.77           13.8         -169.9          89.62          170.3          103.6          15.77
    0.4391              -49.53          34.05          33.63          54.59         -19.75          13.72         -168.9          89.61          169.5          103.5          15.98
    0.4524              -49.54          34.04           33.8          54.64         -19.73          13.64         -167.8          89.61          168.6          103.3          16.22
    0.4657              -49.56          34.02          33.99           54.7          -19.7          13.54         -166.5          89.61          167.6          103.1           16.5
     0.479              -49.58          34.01          34.22          54.76         -19.67          13.43         -164.9           89.6          166.3          102.9          16.84
    0.4923               -49.6          33.99           34.5          54.85         -19.64          13.29         -163.0          89.59          164.8          102.7          17.24
    0.5056              -49.62          33.97          34.83          54.95         -19.59          13.12         -160.7          89.59          162.9          102.4          17.73
    0.5189              -49.66          33.95          35.24          55.07         -19.54          12.91         -157.8          89.58          160.6          102.0          18.32
    0.5322              -49.69          33.92          35.74          55.22         -19.47          12.65         -154.4          89.57          157.9          101.6          19.06
    0.5455              -49.74          33.88          36.37           55.4         -19.39          12.33         -150.0          89.55          154.4          101.0          19.97
    0.5588              -49.81          33.84          37.16          55.64         -19.28          11.93         -144.6          89.54          150.0          100.3          21.13
